<svg id="Capa_1" enable-background="new 0 0 512 512" height="512" viewBox="0 0 512 512" width="512" xmlns="http://www.w3.org/2000/svg"><g><g><path clip-rule="evenodd" d="m151.979 374.092c0 12.168 9.964 22.138 22.124 22.138h118.954c12.16 0 22.096-9.971 22.096-22.138s-9.936-22.11-22.096-22.11h-118.954c-12.16 0-22.124 9.943-22.124 22.11z" fill="#ecf2f3" fill-rule="evenodd"/></g><g><path clip-rule="evenodd" d="m176.355 440.451h114.45 2.252c12.16 0 22.096-9.943 22.096-22.11 0-12.168-9.936-22.11-22.096-22.11h-118.954c-12.16 0-22.124 9.943-22.124 22.11 0 12.168 9.964 22.11 22.124 22.11z" fill="#ecf2f3" fill-rule="evenodd"/></g><g><path clip-rule="evenodd" d="m176.355 469.49c0 15.97 13.061 29.011 28.992 29.011h56.437c15.96 0 29.021-13.041 29.021-29.011v-29.039h-114.45z" fill="#bfdbff" fill-rule="evenodd"/></g><g><path clip-rule="evenodd" d="m231.835 219.857 7.516 7.52c3.941 3.943 3.941 10.393 0 14.336l-20.07 20.082c-3.941 3.943-10.387 3.943-14.327 0l-7.516-7.52c-10.471 6.647-22.153 11.576-34.65 14.393v10.59c0 5.577-4.56 10.14-10.133 10.14h-12.582c11.963 17.575 22.265 36.7 25.981 62.584h135.054c8.022-56.022 46.81-80.329 67.049-125.873 7.431-16.759 12.357-36.362 12.329-61.486-.028-22.814-4.222-43.375-11.597-61.458-6.924-16.928-16.607-31.687-28.233-44.051-28.57-34.503-75.606-42.474-75.606-42.474-10.387-2.225-20.942-3.267-31.47-3.126-26.121-.366-52.496 6.675-75.549 20.336 2.843 1.803 4.757 4.985 4.757 8.591v10.59c12.498 2.817 24.179 7.746 34.65 14.393l7.516-7.52c3.941-3.943 10.387-3.943 14.327 0l20.07 20.082c3.941 3.943 3.941 10.393 0 14.336l-7.516 7.52c6.643 10.478 11.569 22.166 14.384 34.672h10.584c5.573 0 10.133 4.563 10.133 10.14v28.391c0 5.577-4.56 10.14-10.133 10.14h-10.584c-2.815 12.505-7.741 24.194-14.384 34.672z" fill="#ffe6b4" fill-rule="evenodd"/></g><g><path clip-rule="evenodd" d="m20.133 136.514c-5.573 0-10.133 4.563-10.133 10.14v28.391c0 5.577 4.56 10.14 10.133 10.14h10.584c2.815 12.506 7.741 24.194 14.384 34.672l-7.516 7.52c-3.941 3.943-3.941 10.393 0 14.336l20.07 20.082c3.941 3.943 10.387 3.943 14.327 0l7.516-7.52c10.471 6.647 22.153 11.576 34.65 14.393v10.59c0 5.577 4.56 10.14 10.133 10.14h15.791 12.582c5.573 0 10.133-4.563 10.133-10.14v-10.59c12.498-2.817 24.179-7.746 34.65-14.393l7.516 7.52c3.941 3.943 10.387 3.943 14.327 0l20.07-20.082c3.941-3.943 3.941-10.393 0-14.336l-7.516-7.52c6.643-10.478 11.569-22.166 14.384-34.672h10.584c5.573 0 10.133-4.563 10.133-10.14v-28.391c0-5.577-4.56-10.14-10.133-10.14h-10.584c-2.815-12.506-7.741-24.194-14.384-34.672l7.516-7.52c3.941-3.943 3.941-10.393 0-14.336l-20.07-20.082c-3.941-3.943-10.387-3.943-14.327 0l-7.516 7.52c-10.471-6.647-22.153-11.576-34.65-14.393v-10.591c0-3.605-1.914-6.788-4.757-8.591-1.548-.986-3.406-1.549-5.376-1.549h-28.373c-5.573 0-10.133 4.563-10.133 10.14v10.59c-12.498 2.817-24.179 7.746-34.65 14.393l-7.516-7.52c-3.941-3.943-10.387-3.943-14.327 0l-20.07 20.082c-3.941 3.943-3.941 10.393 0 14.336l7.516 7.52c-6.643 10.478-11.569 22.166-14.384 34.672h-10.584z" fill="#bfdbff" fill-rule="evenodd"/></g><g><path clip-rule="evenodd" d="m475.09 35.399c-13.342 0-24.151 10.816-24.151 24.166s10.809 24.166 24.151 24.166 24.179-10.816 24.179-24.166-10.836-24.166-24.179-24.166z" fill="#beece1" fill-rule="evenodd"/></g><g><path clip-rule="evenodd" d="m477.849 140.457c-13.342 0-24.151 10.844-24.151 24.194 0 13.351 10.809 24.166 24.151 24.166s24.151-10.816 24.151-24.166-10.809-24.194-24.151-24.194z" fill="#beece1" fill-rule="evenodd"/></g><g><path clip-rule="evenodd" d="m475.09 245.516c-13.342 0-24.151 10.844-24.151 24.194s10.809 24.166 24.151 24.166 24.179-10.816 24.179-24.166-10.836-24.194-24.179-24.194z" fill="#beece1" fill-rule="evenodd"/></g><g><path d="m123.236 113.833c-1.499-3.834-5.195-6.358-9.312-6.359-.001 0-.001 0-.002 0-4.116 0-7.813 2.522-9.313 6.356l-29.527 75.456c-2.013 5.143.525 10.944 5.668 12.957 1.197.468 2.43.69 3.642.69 3.997 0 7.771-2.412 9.315-6.358l5.008-12.797h30.391l5.002 12.794c2.01 5.144 7.812 7.685 12.954 5.672 5.145-2.011 7.684-7.811 5.673-12.955zm-16.694 49.944 7.376-18.85 7.37 18.85z"/><path d="m178.494 202.93c5.522 0 10-4.477 10-10v-75.456c0-5.523-4.478-10-10-10s-10 4.477-10 10v75.456c0 5.523 4.478 10 10 10z"/><path d="m475.091 235.516c-15.357 0-28.376 10.203-32.658 24.194h-21.766l-8.285-35.852c-1.035-4.477-5.153-7.749-9.743-7.749h-19.879c3.975-12.113 6.688-25.707 7.483-41.47l54.951.01c4.284 13.976 17.3 24.168 32.655 24.168 18.831 0 34.151-15.327 34.151-34.167 0-18.855-15.32-34.194-34.151-34.194-15.357 0-28.375 10.203-32.657 24.193l-54.981-.01c-.76-14.486-3.16-28.364-7.147-41.474h19.573c4.591 0 8.706-3.272 9.743-7.749l8.285-35.852h21.769c4.284 13.975 17.302 24.167 32.656 24.167 18.847 0 34.179-15.327 34.179-34.167s-15.332-34.166-34.179-34.166c-15.354 0-28.371 10.191-32.656 24.166h-29.721c-4.565 0-8.409 3.063-9.606 7.244-.049.156-.095.322-.137.505l-8.285 35.852h-19.204c-6.895-15.005-16.108-28.737-27.54-40.9-3.781-4.025-10.109-4.221-14.135-.438-4.024 3.783-4.221 10.111-.438 14.135 7.76 8.256 14.344 17.366 19.721 27.203h-31.828c-5.522 0-10 4.477-10 10s4.478 10 10 10h40.738c4.565 12.945 7.317 26.839 8.183 41.47l-61.782-.012c-.001 0-.001 0-.002 0-5.522 0-9.999 4.476-10 9.998-.001 5.523 4.476 10.001 9.998 10.002l61.803.012c-.92 16.052-4.094 29.526-8.719 41.474h-40.218c-5.522 0-10 4.477-10 10s4.478 10 10 10h30.561c-6.192 10.726-13.385 20.531-20.731 30.532-15.658 21.318-31.799 43.312-38.397 75.34h-118.274c-3.551-17.21-9.784-31.302-16.651-43.268 8.628-2.273 15.018-10.121 15.018-19.456v-2.87c8.003-2.377 15.712-5.579 23.046-9.571l2.046 2.048c3.796 3.797 8.852 5.888 14.237 5.888s10.441-2.091 14.237-5.889l20.069-20.083c7.846-7.85 7.846-20.624 0-28.474l-2.053-2.054c3.992-7.341 7.193-15.059 9.57-23.07h2.86c11.102 0 20.134-9.035 20.134-20.14v-28.391c0-11.105-9.032-20.14-20.134-20.14h-2.86c-2.377-8.011-5.578-15.728-9.57-23.07l2.053-2.054c7.845-7.85 7.845-20.623 0-28.474l-20.069-20.083c-3.796-3.797-8.852-5.888-14.237-5.888s-10.441 2.091-14.237 5.889l-2.046 2.047c-7.335-3.993-15.043-7.194-23.046-9.571v-2.87c0-1.686-.231-3.316-.623-4.883 19.164-9.502 40.166-14.347 61.275-14.045.092.001.183.001.274 0 9.801-.128 19.63.846 29.241 2.906 5.399 1.154 10.716-2.283 11.873-7.684 1.156-5.4-2.283-10.716-7.684-11.873-11.028-2.363-22.321-3.493-33.561-3.349-26.553-.361-52.854 6.32-76.412 19.317-1.455-.335-2.962-.53-4.517-.53h-28.373c-11.102 0-20.134 9.035-20.134 20.14v2.87c-8.003 2.377-15.711 5.578-23.046 9.571l-2.046-2.047c-3.796-3.797-8.852-5.888-14.237-5.888s-10.441 2.091-14.237 5.889l-20.069 20.086c-7.845 7.85-7.845 20.623 0 28.474l2.053 2.054c-3.992 7.342-7.193 15.059-9.57 23.07h-2.86c-11.103-.001-20.135 9.034-20.135 20.139v28.391c0 11.105 9.032 20.14 20.134 20.14h2.86c2.377 8.011 5.578 15.729 9.57 23.07l-2.053 2.054c-7.846 7.85-7.846 20.624 0 28.474l20.069 20.083c3.796 3.797 8.852 5.888 14.237 5.888s10.441-2.091 14.237-5.889l2.046-2.047c7.334 3.992 15.043 7.194 23.046 9.571v2.87c0 11.105 9.032 20.14 20.134 20.14h10.439c8.367 12.811 16.698 28.428 20.535 48.715-8.038 5.842-13.277 15.308-13.277 25.979 0 8.573 3.379 16.366 8.866 22.134-5.487 5.763-8.866 13.549-8.866 22.115 0 15.036 10.395 27.685 24.377 31.16v19.989c0 21.511 17.492 39.011 38.992 39.011h56.437c21.516 0 39.021-17.5 39.021-39.011v-19.991c13.967-3.477 24.349-16.125 24.349-31.158 0-8.565-3.376-16.351-8.859-22.115 5.483-5.768 8.859-13.561 8.859-22.134 0-10.679-5.243-20.151-13.283-25.992 5.438-28.897 19.986-48.713 35.341-69.618 9.675-13.172 19.493-26.557 27.331-42.372h20.144l8.285 35.852c1.035 4.478 5.152 7.749 9.743 7.749h29.721c4.284 13.975 17.302 24.166 32.656 24.166 18.847 0 34.179-15.327 34.179-34.166 0-18.857-15.332-34.196-34.179-34.196zm2.758-85.059c7.803 0 14.151 6.368 14.151 14.194 0 7.812-6.349 14.167-14.151 14.167s-14.15-6.355-14.15-14.167c-.001-7.826 6.347-14.194 14.15-14.194zm-2.758-105.058c7.818 0 14.179 6.355 14.179 14.166 0 7.812-6.36 14.167-14.179 14.167-7.803 0-14.151-6.355-14.151-14.167-.001-7.811 6.348-14.166 14.151-14.166zm-322.303 223.269v10.59c0 .058-.087.14-.134.14h-12.602c-.022 0-.044 0-.067 0h-15.704c-.047 0-.134-.082-.134-.14v-10.59c0-4.676-3.24-8.727-7.801-9.755-11.199-2.524-21.794-6.925-31.489-13.08-1.648-1.047-3.508-1.558-5.356-1.558-2.584 0-5.146 1-7.076 2.931l-7.516 7.52c-.043.044-.139.043-.182 0l-20.069-20.083c-.038-.038-.038-.16 0-.198l7.516-7.521c3.308-3.31 3.878-8.471 1.372-12.423-6.151-9.704-10.55-20.306-13.073-31.514-1.027-4.563-5.079-7.804-9.756-7.804h-10.583c-.047 0-.134-.082-.134-.14v-28.391c0-.058.087-.14.134-.14h10.583c4.677 0 8.729-3.241 9.756-7.804 2.523-11.207 6.922-21.81 13.073-31.514 2.506-3.953 1.936-9.114-1.372-12.423l-7.516-7.52c-.039-.039-.039-.161 0-.199l20.069-20.082c.043-.043.139-.042.182 0l7.516 7.52c3.312 3.313 8.479 3.883 12.433 1.374 9.696-6.155 20.291-10.556 31.488-13.08 4.562-1.028 7.802-5.08 7.802-9.755v-10.59c0-.058.087-.14.134-.14h28.373c.047 0 .134.082.134.14v10.59c0 4.676 3.24 8.728 7.802 9.755 11.197 2.523 21.792 6.924 31.488 13.08 3.952 2.51 9.121 1.94 12.433-1.374l7.516-7.52c.043-.043.139-.042.182 0l20.069 20.082c.039.039.039.161 0 .199l-7.516 7.52c-3.308 3.31-3.878 8.471-1.372 12.423 6.151 9.704 10.55 20.307 13.073 31.514 1.027 4.563 5.079 7.804 9.756 7.804h10.583c.047 0 .134.082.134.14v28.391c0 .058-.087.14-.134.14h-10.583c-4.677 0-8.729 3.241-9.756 7.804-2.523 11.208-6.922 21.81-13.073 31.514-2.506 3.952-1.936 9.113 1.372 12.423l7.516 7.521c.038.038.038.16 0 .198l-20.069 20.082c-.043.043-.139.043-.182 0l-7.516-7.521c-3.312-3.313-8.48-3.884-12.433-1.374-9.695 6.155-20.29 10.556-31.489 13.08-4.562 1.031-7.802 5.082-7.802 9.758zm128.017 200.822c0 10.482-8.532 19.011-19.021 19.011h-56.437c-10.473 0-18.992-8.528-18.992-19.011v-19.039h94.449v19.039zm12.252-39.039h-118.953c-6.686 0-12.125-5.433-12.125-12.11 0-6.678 5.439-12.11 12.125-12.11h118.953c6.67 0 12.097 5.433 12.097 12.11-.001 6.677-5.427 12.11-12.097 12.11zm0-44.22h-118.953c-6.686 0-12.125-5.445-12.125-12.138 0-6.678 5.439-12.11 12.125-12.11h118.953c6.67 0 12.097 5.433 12.097 12.11-.001 6.692-5.427 12.138-12.097 12.138zm182.034-102.355c-7.803 0-14.151-6.355-14.151-14.166 0-7.827 6.349-14.194 14.151-14.194 7.818 0 14.179 6.368 14.179 14.194 0 7.811-6.361 14.166-14.179 14.166z"/><path d="m301.393 40.935.057.028c1.432.716 2.951 1.055 4.447 1.055 3.663 0 7.187-2.034 8.94-5.542 2.47-4.94.439-10.961-4.501-13.431-4.939-2.47-10.947-.468-13.416 4.472-2.47 4.942-.468 10.948 4.473 13.418z"/></g></g></svg>